<svg width="34" height="41" viewBox="0 0 34 41" fill="none" xmlns="http://www.w3.org/2000/svg">
<g filter="url(#filter0_d_13_224)">
<path fill-rule="evenodd" clip-rule="evenodd" d="M17.125 9.28125C15.4162 9.28125 14.0312 10.6662 14.0312 12.375C14.0312 14.0838 15.4162 15.4687 17.125 15.4687C18.8338 15.4687 20.2187 14.0838 20.2187 12.375C20.2187 10.6662 18.8338 9.28125 17.125 9.28125ZM17.125 17.5312C14.2777 17.5312 11.9687 15.2233 11.9687 12.375C11.9687 9.52668 14.2777 7.21875 17.125 7.21875C19.9723 7.21875 22.2812 9.52668 22.2812 12.375C22.2812 15.2233 19.9723 17.5312 17.125 17.5312ZM17.125 0C10.2909 0 4.75 5.5409 4.75 12.375C4.75 17.5498 15.0677 33.0113 17.125 33C19.1504 33.0113 29.5 17.4797 29.5 12.375C29.5 5.5409 23.9591 0 17.125 0Z" fill="#676B73"/>
</g>
<defs>
<filter id="filter0_d_13_224" x="0.75" y="0" width="32.75" height="41" filterUnits="userSpaceOnUse" color-interpolation-filters="sRGB">
<feFlood flood-opacity="0" result="BackgroundImageFix"/>
<feColorMatrix in="SourceAlpha" type="matrix" values="0 0 0 0 0 0 0 0 0 0 0 0 0 0 0 0 0 0 127 0" result="hardAlpha"/>
<feOffset dy="4"/>
<feGaussianBlur stdDeviation="2"/>
<feComposite in2="hardAlpha" operator="out"/>
<feColorMatrix type="matrix" values="0 0 0 0 0 0 0 0 0 0 0 0 0 0 0 0 0 0 0.25 0"/>
<feBlend mode="normal" in2="BackgroundImageFix" result="effect1_dropShadow_13_224"/>
<feBlend mode="normal" in="SourceGraphic" in2="effect1_dropShadow_13_224" result="shape"/>
</filter>
</defs>
</svg>
