<svg width="27" height="24" viewBox="0 0 27 24" fill="none" xmlns="http://www.w3.org/2000/svg">
<path fill-rule="evenodd" clip-rule="evenodd" d="M12.1911 1.50763C11.3548 0.18988 9.52461 -0.30068 8.08177 0.498918L5.93511 1.65057C4.35179 2.49912 3.81494 4.4018 4.71943 5.86942L4.72008 5.87046C5.18667 6.62514 5.11343 7.10723 4.96779 7.34417C4.82207 7.58124 4.41405 7.88168 3.48668 7.88168C1.66136 7.88168 0.188904 9.27976 0.188904 10.9733V13.0267C0.188904 14.7203 1.66136 16.1183 3.48668 16.1183C4.41405 16.1183 4.82207 16.4187 4.96779 16.6558C5.11343 16.8928 5.18667 17.3748 4.72008 18.1295L4.71943 18.1306C3.81494 19.5983 4.35229 21.5012 5.93562 22.3497L8.08188 23.5011C9.52471 24.3006 11.3548 23.8102 12.1911 22.4924L12.3336 22.2618C12.8002 21.507 13.2842 21.3246 13.5775 21.3246C13.8696 21.3246 14.3498 21.5055 14.8103 22.2585L14.8122 22.2618L14.9491 22.4834L14.9547 22.4924C15.791 23.8102 17.6211 24.3006 19.0639 23.5011L21.2107 22.3495C22.7951 21.5003 23.3286 19.6108 22.4286 18.1342L22.4258 18.1295C21.9591 17.3748 22.0324 16.8928 22.178 16.6558C22.3237 16.4187 22.7318 16.1183 23.6591 16.1183C25.4845 16.1183 26.9569 14.7203 26.9569 13.0267V10.9733C26.9569 9.2621 25.4656 7.88168 23.6591 7.88168C22.7318 7.88168 22.3237 7.58124 22.178 7.34417C22.0324 7.10723 21.9591 6.62514 22.4258 5.87046L22.4264 5.86942C23.331 4.40165 22.7939 2.49871 21.2102 1.6503L19.064 0.498918C17.6212 -0.30068 15.791 0.189833 14.9547 1.50759L14.8122 1.73827C14.3456 2.49301 13.8616 2.67543 13.5682 2.67543C13.2762 2.67543 12.796 2.49455 12.3356 1.74151L12.3336 1.73827L12.1967 1.51658L12.1911 1.50763ZM17.3 12C17.3 13.933 15.6286 15.5 13.5667 15.5C11.5048 15.5 9.83335 13.933 9.83335 12C9.83335 10.0669 11.5048 8.5 13.5667 8.5C15.6286 8.5 17.3 10.0669 17.3 12Z" fill="#676B73"/>
</svg>
